<svg xmlns="http://www.w3.org/2000/svg" xml:space="preserve" width="3840" height="2160"><path fill="#170f20" d="M0 0h3840v2160H0z"/><path fill="#171e30" d="M548 824.02c-148.956 7.59-296.662 27.465-437.5 58.87-34.233 7.634-79.786 19.138-103.75 26.204L0 911.084V2160h1784.5c981.475 0 1784.5-.274 1784.5-.607 0-.334-3.016-4.497-6.703-9.25-171.28-220.856-364.345-351.314-569.797-385.028-44.225-7.257-125.474-15.811-186-19.582-48.392-3.015-74.137-3.78-126.5-3.79-85.756-.01-142.53 3.376-256 15.267-47.811 5.01-64.323 6.631-86 8.441-126.966 10.602-203.553-3.159-298.219-53.582-128.384-68.383-206.763-138.02-245.666-218.266-3.227-6.657-9.127-20.203-13.11-30.103-8.31-20.657-13.03-30.372-24.3-50-16.047-27.95-52.966-88.24-87.75-143.297-15.207-24.07-25.525-36.4-59.455-71.059-81.57-83.319-183.902-162.803-285-221.363-142.48-82.53-292.173-132.617-441.5-147.726-91.422-9.25-224.775-11.652-335-6.035"/><path fill="#251029" d="M3818.5 1041.62c-77.61-28.144-148.701-62.783-220.5-107.44-40.609-25.257-82.913-54.711-146-101.653-88.242-65.66-116.84-85.973-151-107.26-102.102-63.625-192.312-93.931-304.5-102.298-23.408-1.746-118.942-2.367-164.5-1.07-168.212 4.788-341.523 22.399-518.5 52.686-67.599 11.568-101.378 18.466-134 27.362-71.973 19.627-163.208 38.202-243 49.473-196.491 27.757-367.053 22.105-496-16.435-90.495-27.048-154.935-65.204-222.853-131.956-39.605-38.924-70.563-76.833-104.145-127.529-27.08-40.88-43.626-69.866-68.502-120-51.703-104.203-91.944-219.296-123.508-353.25l-.53-2.25H3840v524.5c0 288.475-.337 524.471-.75 524.436-.412-.035-9.75-3.327-20.75-7.316"/><path fill="#242d48" d="M0 1693.639v-466.362l5.75-1.203c38.012-7.95 80.759-13.528 122.961-16.046 21.935-1.31 78.822-1.32 100.289-.018 85.836 5.204 166.915 22.549 238 50.914 87.956 35.098 147.282 88.022 181.122 161.576 23.38 50.818 31.993 114.864 22.459 167-6.132 33.53-8.915 64.99-8.934 101-.02 34.655 2.023 55.914 7.882 82.036 9.21 41.064 27.776 73.699 52.855 92.908 14.542 11.138 62.648 36.502 93.04 49.056 27.378 11.308 54.716 19.413 72.576 21.516 4.675.55 15.925 1.897 25 2.993 74.158 8.953 164.15 9.456 258 1.441 87.862-7.503 171.484-21.438 272-45.326 54.836-13.032 81.419-18.768 125.5-27.082 149.376-28.172 312.747-44.652 463-46.707 48.37-.661 61.02-.144 92 3.76 127.794 16.103 259.597 68.6 359.212 143.07 53.612 40.08 90.382 98.103 111.741 176.325 1.95 7.145 3.547 13.557 3.547 14.25 0 1.013-255.09 1.26-1299 1.26H0Z"/><path fill="#360f2b" d="M2526.5 536.975c-209.04-5.081-396.408-47.816-552.765-126.074-30.272-15.151-50.502-26.397-86.735-48.213C1697.438 248.551 1560.633 133.81 1488.55 28.5 1479.784 15.696 1471 1.762 1471 .666 1471 .3 2004.025 0 2655.5 0H3840v120.433c0 113.83-.096 120.461-1.75 120.961-5.51 1.667-67.524 15.974-128.75 29.704-125.353 28.11-199.116 50.11-364 108.562-37.3 13.223-61.47 21.124-85.5 27.949-38.67 10.983-90.842 26.125-215 62.4-87.283 25.502-102.53 29.493-139 36.385-120.582 22.785-254.9 33.609-379.5 30.58"/><path fill="#33406b" d="M.393 1482C.177 1482 0 1634.55 0 1821v339l458.25-.098 458.25-.1-7.125-2.34c-3.919-1.287-14.494-3.936-23.5-5.889l-37.326-8.093c-120.074-26.036-220.978-66.81-276.217-111.62-9.795-7.945-45.598-43.501-60.346-59.93-35.728-39.798-81.64-102.726-126.324-173.144-5.833-9.192-20.565-33.267-32.738-53.5s-25.74-42.186-30.15-48.786c-36.74-54.99-85.075-103.609-138.774-139.59-52.265-35.02-114.686-61.33-172.857-72.857C5.446 1482.923.608 1482 .393 1482"/><path fill="#590e28" d="M3137 0c-386.65 0-703 .185-703 .412 0 .959 70.425 41.543 118 68.002 102.195 56.835 216.103 98.397 348 126.973 95.235 20.632 179.712 30.8 282 33.945 24.71.76 118.025.525 141-.353 62.926-2.407 121.783-8.154 164.5-16.065 27.994-5.184 86.9-19.238 117-27.914 25.717-7.413 40.15-12.616 84.451-30.453 22.302-8.98 53.149-20.897 68.549-26.483 39.008-14.149 55.978-22.824 75.75-38.722l6.75-5.428V0Z"/><path fill="#e6e6e6" d="m2106.064 1031.271-29.513-17.502c-13.817-8.223-22.357-23.382-22.357-39.782v-35.004c0-7.167-3.175-13.92-8.586-18.42-16.098-13.368-34.208-24.21-53.793-31.972-6.53-2.572-13.818-2.067-19.854 1.516l-29.557 17.548c-13.817 8.222-30.855 8.222-44.716 0l-29.558-17.548a22.42 22.42 0 0 0-19.854-1.516c-19.63 7.763-37.695 18.604-53.749 31.926-5.41 4.502-8.585 11.254-8.585 18.42v35.004c0 16.4-8.496 31.56-22.358 39.782l-29.513 17.502c-6.037 3.583-10.15 9.785-11.224 16.859-1.654 10.427-2.459 21.085-2.459 31.926s.805 21.498 2.415 31.88c1.073 7.074 5.187 13.322 11.223 16.905l29.513 17.501c13.818 8.223 22.358 23.382 22.358 39.782v35.004c0 7.165 3.175 13.918 8.586 18.42 16.053 13.321 34.162 24.163 53.748 31.927 6.529 2.572 13.818 2.067 19.855-1.517l29.556-17.548c13.817-8.222 30.854-8.222 44.716 0l29.557 17.548c6.036 3.584 13.37 4.089 19.854 1.517 19.586-7.764 37.695-18.606 53.749-31.926 5.41-4.503 8.586-11.256 8.586-18.42v-35.005c0-16.4 8.54-31.56 22.358-39.782l29.511-17.501c6.037-3.583 10.151-9.784 11.224-16.906a214 214 0 0 0 2.415-31.88c0-10.84-.805-21.498-2.415-31.879-1.029-7.075-5.098-13.276-11.133-16.859m-186.014 171.99c-66.225 0-119.928-55.172-119.928-123.203 0-68.033 53.703-123.203 119.928-123.203 66.223 0 119.927 55.17 119.927 123.203 0 68.031-53.704 123.202-119.927 123.202"/><path fill="#445a92" d="M0 2057.544V1955.09l7.25 3.061c22.561 9.528 53.192 25.493 81.75 42.609 28.92 17.333 52.298 33.648 85.5 59.67 44.479 34.862 103.824 67.658 162.5 89.805 7.975 3.01 16.975 6.41 20 7.554l5.5 2.082-181.25.065L0 2160Z"/></svg>